<svg xmlns="http://www.w3.org/2000/svg" viewBox="0 0 105.6 77.6"><defs><style>.cls-1{fill:#6abb82;}.cls-2{fill:#fff;}</style></defs><g id="Calque_2" data-name="Calque 2"><g id="Calque_1-2" data-name="Calque 1"><path class="cls-1" d="M105.6,38.8S69.54,77.6,44.8,77.6,0,63.54,0,38.8,20.06,0,44.8,0,105.6,38.8,105.6,38.8Z"/><path class="cls-2" d="M69.46,42.63C68.32,35.37,65.93,33,58.91,32A85.74,85.74,0,0,0,32.78,32c-5.17.84-9,2.68-10.45,9-.9,3.94-1.44,6.9.15,10.64,1.05,2.46-1.2,4.7-2.62,6.75-.6.86-1.34.35-1.71-.36-1.4-2.62-3.75-4.79-1.46-8.43s.59-10-2.92-12.71c-2.36-1.84-2.37-3.29.38-4.52,10-4.47,20-8.89,30-13.35a4.35,4.35,0,0,1,3.82.18q14.58,6.51,29.2,12.93c3.12,1.38,3.46,3,.45,5C74.93,38.92,72.27,40.75,69.46,42.63Z"/><path class="cls-2" d="M65,44.08A80.94,80.94,0,0,0,26.92,44c-1.44-5.58-.45-7.45,5.18-8.42a81.56,81.56,0,0,1,27.31,0C65.12,36.52,66,38.1,65,44.08Z"/><path class="cls-2" d="M45.83,52.43a53.33,53.33,0,0,1-16.69-1.65c-1.11-.33-2.58-.47-2.6-1.93,0-1.19,1.26-1.52,2.25-1.74a75.14,75.14,0,0,1,34.24,0c1,.23,2.24.54,2.19,1.8S63.94,50.39,63,50.69C57.36,52.36,51.62,52.6,45.83,52.43Z"/></g></g></svg>